<svg width="248" height="176" viewBox="0 0 248 176" fill="none" xmlns="http://www.w3.org/2000/svg">
<g clip-path="url(#clip0_7999_69625)">
<path d="M105.339 74.7419C104.95 74.4554 104.578 74.1458 104.226 73.8146L104.708 73.3025C105.039 73.6143 105.389 73.9058 105.756 74.1756L105.339 74.7419Z" fill="#CED2DB"/>
<path d="M102.291 71.4527C101.752 70.5853 101.327 69.6517 101.028 68.6754L101.7 68.4689C101.982 69.3874 102.381 70.2655 102.888 71.0815L102.291 71.4527ZM100.511 65.6688C100.504 65.5026 100.501 65.3363 100.501 65.1697C100.501 64.3155 100.593 63.4637 100.776 62.6293L101.463 62.7799C101.291 63.5649 101.204 64.3661 101.204 65.1697C101.204 65.3264 101.207 65.4829 101.214 65.6393L100.511 65.6688ZM102.435 60.0802L101.81 59.7584C102.1 59.1949 102.435 58.6554 102.81 58.1448C103.041 57.8316 103.29 57.5325 103.556 57.2492L104.068 57.7307C103.821 57.9936 103.59 58.2709 103.377 58.5614C103.023 59.042 102.708 59.5498 102.435 60.0802H102.435ZM106.324 56.0016L105.992 55.3818C106.9 54.8956 107.88 54.5591 108.895 54.3852L109.014 55.0782C108.073 55.2393 107.165 55.5511 106.324 56.0016H106.324ZM114.562 55.9248C113.714 55.4883 112.8 55.1928 111.857 55.0498L111.963 54.3547C112.981 54.5091 113.967 54.8282 114.883 55.2995L114.562 55.9248Z" fill="#CED2DB"/>
<path d="M117.627 58.7075C117.396 58.3248 117.13 57.9651 116.831 57.6332L117.353 57.1624C117.683 57.5277 117.976 57.9238 118.229 58.3451L117.627 58.7075Z" fill="#CED2DB"/>
<path d="M90.6729 51.2277L90.1064 50.8111C90.3878 50.4286 90.6843 50.0503 90.9878 49.6868L91.5276 50.1375C91.2333 50.49 90.9458 50.8568 90.6729 51.2277Z" fill="#CED2DB"/>
<path d="M125.507 50.4144C124.967 49.6646 124.369 48.9585 123.717 48.3028L124.216 47.8073C124.894 48.4893 125.516 49.2237 126.078 50.0035L125.507 50.4144ZM93.44 48.118L92.9609 47.6033C93.662 46.9511 94.4034 46.3438 95.1808 45.785L95.591 46.356C94.8377 46.8975 94.1192 47.486 93.44 48.118ZM121.618 46.4968C120.871 45.9478 120.089 45.4457 119.279 44.9933L119.622 44.3793C120.457 44.8459 121.263 45.3638 122.035 45.9301L121.618 46.4968ZM97.9471 44.8799L97.6122 44.2617C98.454 43.806 99.3236 43.4036 100.216 43.0567L100.47 43.712C99.6057 44.0482 98.7629 44.4382 97.9471 44.8799ZM116.771 43.7946C115.911 43.4485 115.029 43.157 114.132 42.9218L114.311 42.2416C115.236 42.4843 116.146 42.7852 117.034 43.1423L116.771 43.7946ZM103.12 42.8692L102.949 42.1871C103.878 41.9549 104.82 41.7806 105.77 41.6653L105.854 42.3633C104.933 42.4751 104.02 42.6441 103.12 42.8691V42.8692ZM111.404 42.3885C110.484 42.2685 109.558 42.2062 108.63 42.2019L108.633 41.4988C109.59 41.5033 110.546 41.5676 111.495 41.6914L111.404 42.3885Z" fill="#CED2DB"/>
<path d="M127.516 54.0407C127.342 53.6165 127.151 53.1944 126.945 52.7861L127.574 52.4702C127.787 52.895 127.987 53.3339 128.167 53.7749L127.516 54.0407Z" fill="#CED2DB"/>
<path d="M129.442 95.3579L129.2 94.6975C129.633 94.539 130.07 94.3693 130.498 94.1931L130.766 94.8435C130.329 95.0232 129.884 95.1962 129.442 95.3579Z" fill="#CED2DB"/>
<path d="M118.48 97.5056L118.455 96.8029C119.367 96.7696 120.289 96.6997 121.195 96.5951L121.276 97.2936C120.351 97.4003 119.411 97.4716 118.48 97.5056ZM115.677 97.4973C114.745 97.4578 113.805 97.3808 112.882 97.2682L112.967 96.5704C113.872 96.6806 114.793 96.7561 115.706 96.7949L115.677 97.4973ZM124.046 96.863L123.911 96.173C124.806 95.9977 125.706 95.7843 126.585 95.5392L126.774 96.2164C125.877 96.4665 124.96 96.684 124.046 96.863ZM110.115 96.8191C109.202 96.6336 108.286 96.4092 107.392 96.1519L107.586 95.4763C108.463 95.7283 109.361 95.9483 110.255 96.1302L110.115 96.8191ZM104.73 95.2706C103.859 94.943 102.99 94.5761 102.147 94.1802L102.446 93.5439C103.272 93.9318 104.124 94.2914 104.978 94.6125L104.73 95.2706ZM99.6588 92.8889C98.8525 92.4291 98.0523 91.9301 97.2803 91.4058L97.6753 90.8242C98.4321 91.3383 99.2166 91.8274 100.007 92.278L99.6588 92.8889Z" fill="#CED2DB"/>
<path d="M95.0187 89.7285C94.6519 89.429 94.2884 89.117 93.9385 88.8012L94.4096 88.2791C94.751 88.5873 95.1056 88.8916 95.4635 89.1839L95.0187 89.7285Z" fill="#CED2DB"/>
<path d="M75.5546 18.8367L75.1934 18.2333C75.5972 17.9916 76.0089 17.7523 76.4169 17.522L76.7625 18.1343C76.3597 18.3617 75.9533 18.598 75.5546 18.8367Z" fill="#CED2DB"/>
<path d="M143.238 28.4388C142.635 27.737 142.001 27.0448 141.353 26.3816L141.856 25.8903C142.515 26.5643 143.159 27.2676 143.771 27.9808L143.238 28.4388ZM139.341 24.4495C138.654 23.831 137.937 23.2253 137.209 22.6494L137.645 22.0981C138.385 22.6832 139.113 23.2985 139.811 23.927L139.341 24.4495ZM134.968 20.9832C134.208 20.4493 133.425 19.9287 132.642 19.4362L133.017 18.8411C133.81 19.3399 134.602 19.867 135.372 20.4079L134.968 20.9832ZM130.242 18.0095C129.433 17.5566 128.602 17.1184 127.771 16.7071L128.083 16.077C128.925 16.4935 129.767 16.9374 130.585 17.3961L130.242 18.0095ZM79.2307 16.8237L78.917 16.1946C79.7579 15.7754 80.621 15.3726 81.4821 14.9972L81.7631 15.6417C80.9129 16.0123 80.0608 16.4099 79.2307 16.8237L79.2307 16.8237ZM125.237 15.5335C124.386 15.1654 123.514 14.8149 122.646 14.4916L122.891 13.8327C123.771 14.1602 124.654 14.5153 125.516 14.888L125.237 15.5335ZM84.3527 14.5911L84.1051 13.9331C84.9833 13.6027 85.8828 13.2902 86.779 13.0043L86.9927 13.6742C86.1079 13.9564 85.2197 14.2649 84.3527 14.5911L84.3527 14.5911ZM120.004 13.5846C119.12 13.3065 118.217 13.0477 117.319 12.8153L117.495 12.1346C118.404 12.37 119.32 12.6323 120.215 12.914L120.004 13.5846ZM89.676 12.8933L89.4968 12.2133C90.404 11.9743 91.3307 11.755 92.2512 11.5618L92.3956 12.2498C91.4867 12.4407 90.5717 12.6572 89.676 12.8933L89.676 12.8933ZM114.597 12.1851C113.69 11.9993 112.764 11.8347 111.847 11.6956L111.952 11.0005C112.881 11.1413 113.819 11.3081 114.738 11.4962L114.597 12.1851ZM95.1444 11.746L95.0352 11.0513C95.9622 10.9057 96.9064 10.7817 97.8415 10.6831L97.9153 11.3823C96.992 11.4798 96.0597 11.6021 95.1444 11.746V11.746ZM109.074 11.3481C108.152 11.2563 107.215 11.1873 106.288 11.1428L106.322 10.4406C107.261 10.4856 108.21 10.5555 109.144 10.6484L109.074 11.3481ZM100.701 11.1602L100.663 10.4582C101.602 10.4073 102.554 10.3801 103.492 10.3772L103.494 11.0803C102.568 11.0832 101.628 11.11 100.701 11.1602L100.701 11.1602Z" fill="#CED2DB"/>
<path d="M145.817 31.7554C145.55 31.3759 145.274 30.9964 144.997 30.6274L145.559 30.2048C145.841 30.5799 146.121 30.9656 146.392 31.3513L145.817 31.7554Z" fill="#CED2DB"/>
<path d="M113.801 145.455C113.334 145.395 112.868 145.332 112.402 145.264L112.503 144.568C112.965 144.635 113.428 144.698 113.89 144.758L113.801 145.455Z" fill="#CED2DB"/>
<path d="M109.557 144.802C108.616 144.633 107.664 144.446 106.729 144.245L106.877 143.558C107.804 143.757 108.748 143.943 109.681 144.11L109.557 144.802ZM103.922 143.594C102.992 143.361 102.055 143.11 101.138 142.848L101.331 142.172C102.241 142.432 103.17 142.681 104.092 142.911L103.922 143.594ZM98.3807 142.008C97.469 141.714 96.5514 141.401 95.6534 141.077L95.892 140.415C96.7825 140.737 97.6925 141.047 98.5967 141.339L98.3807 142.008ZM92.9593 140.054C92.072 139.7 91.1777 139.326 90.3011 138.941L90.5836 138.297C91.4529 138.679 92.3399 139.05 93.2199 139.401L92.9593 140.054ZM87.6819 137.739C86.8193 137.326 85.9522 136.892 85.1048 136.45L85.4298 135.827C86.2702 136.265 87.1302 136.695 87.9859 137.105L87.6819 137.739ZM82.5721 135.075C81.7423 134.607 80.9062 134.116 80.087 133.617L80.4528 133.017C81.2654 133.512 82.0947 133.999 82.9178 134.463L82.5721 135.075ZM77.6518 132.077C76.8527 131.553 76.0509 131.008 75.2688 130.457L75.6735 129.882C76.4494 130.429 77.2447 130.969 78.0374 131.489L77.6518 132.077ZM72.9392 128.757C72.1747 128.177 71.4138 127.574 70.6775 126.965L71.1254 126.423C71.8542 127.026 72.6075 127.622 73.3643 128.197L72.9392 128.757ZM68.4918 125.082C67.7793 124.442 67.0709 123.778 66.3863 123.109L66.8776 122.606C67.5552 123.268 68.2564 123.925 68.9617 124.559L68.4918 125.082ZM64.365 121.05C63.7085 120.352 63.0582 119.632 62.432 118.908L62.9638 118.448C63.5836 119.164 64.2273 119.878 64.877 120.568L64.365 121.05ZM60.5908 116.686C59.9951 115.935 59.4076 115.162 58.8447 114.388L59.4134 113.975C59.9705 114.741 60.5519 115.506 61.1415 116.249L60.5908 116.686Z" fill="#CED2DB"/>
<path d="M57.1887 112.007C56.9278 111.614 56.6712 111.219 56.4189 110.822L57.0125 110.445C57.2622 110.838 57.5162 111.229 57.7744 111.618L57.1887 112.007Z" fill="#CED2DB"/>
<path d="M207.587 30.4192L198.824 38.4869L205.789 26.8011C200.302 16.8509 191.328 8.25146 191.328 8.25146C191.328 8.25146 172.71 26.0887 172.71 40.1099C172.71 54.1311 181.045 59.0268 191.328 59.0268C201.61 59.0268 209.945 54.1311 209.945 40.1099C209.945 36.9891 209.021 33.6793 207.587 30.4192Z" fill="#F3F6FA"/>
<path d="M196.57 38.9236V39.6147C196.529 47.6482 195.174 53.9163 192.516 58.3299C192.478 58.3949 192.437 58.4565 192.4 58.5215L192.102 58.3402L191.818 58.1623C194.767 53.3962 195.811 46.6594 195.848 39.6524C195.852 39.4266 195.855 39.1973 195.852 38.9681C195.842 36.0017 195.66 33.0011 195.369 30.0861C195.349 29.8602 195.325 29.631 195.301 29.4018C194.897 25.5561 194.316 21.8815 193.72 18.6893C193.679 18.4635 193.635 18.2377 193.59 18.0153C192.56 12.6163 191.51 8.7056 191.271 7.83997C191.243 7.73391 191.226 7.67575 191.223 7.66207L191.548 7.56969L191.551 7.56626L191.88 7.47388C191.883 7.48758 191.941 7.6826 192.037 8.04527C192.403 9.40013 193.354 13.0782 194.288 17.9297C194.329 18.1487 194.374 18.3745 194.415 18.6004C194.901 21.1904 195.376 24.0849 195.753 27.1231C195.848 27.8861 195.934 28.6388 196.009 29.3813C196.037 29.6105 196.061 29.8397 196.081 30.0655C196.396 33.2167 196.559 36.1694 196.57 38.9236Z" fill="white"/>
<path d="M194.288 17.9298C194.059 17.9606 193.826 17.9914 193.59 18.0154C192.949 18.0814 192.305 18.1145 191.66 18.1146C188.914 18.1182 186.201 17.5056 183.723 16.3218C183.579 16.5031 183.435 16.6844 183.288 16.8692C185.895 18.1419 188.759 18.8019 191.66 18.7989C192.348 18.7987 193.036 18.7621 193.72 18.6894C193.953 18.6654 194.185 18.6346 194.415 18.6004C196.307 18.329 198.147 17.7718 199.872 16.9479C199.725 16.7597 199.581 16.5749 199.441 16.3936C197.808 17.1566 196.072 17.6743 194.288 17.9298Z" fill="white"/>
<path d="M196.009 29.3812C195.773 29.3949 195.537 29.4018 195.301 29.4018C195.229 29.4052 195.153 29.4052 195.082 29.4052C192.105 29.4052 189.173 28.6856 186.535 27.3076C183.897 25.9297 181.632 23.9342 179.932 21.4915C179.795 21.6933 179.658 21.8952 179.524 22.1005C181.296 24.5721 183.632 26.586 186.337 27.9753C189.043 29.3646 192.04 30.0894 195.082 30.0895C195.177 30.0895 195.273 30.0895 195.369 30.0861C195.609 30.0826 195.845 30.0758 196.081 30.0655C199.734 29.8784 203.256 28.6431 206.225 26.5072C206.116 26.3054 206.006 26.1035 205.893 25.9017C203.007 27.9986 199.572 29.2079 196.009 29.3812Z" fill="white"/>
<path d="M196.571 38.9235C196.331 38.9441 196.092 38.9578 195.852 38.968C195.596 38.9783 195.339 38.9851 195.082 38.9851C191.083 38.9805 187.193 37.6807 183.994 35.2801C180.796 32.8796 178.461 29.5076 177.339 25.6689C177.185 25.9461 177.031 26.2198 176.884 26.4969C178.148 30.3267 180.587 33.6607 183.853 36.0254C187.12 38.3901 191.049 39.6651 195.082 39.6694C195.339 39.6694 195.596 39.666 195.849 39.6523C196.092 39.6455 196.331 39.6318 196.571 39.6147C201.408 39.2362 205.921 37.0336 209.196 33.4527C209.124 33.1995 209.042 32.9497 208.96 32.6966C205.797 36.3042 201.353 38.5378 196.571 38.9235Z" fill="white"/>
<path d="M28.2125 36.0055L33.9282 46.4562L24.2673 36.8786C13.2874 39.8035 2.77734 46.4382 2.77734 46.4382C2.77734 46.4382 15.5972 68.8087 29.2044 72.1907C42.8116 75.5727 49.5733 68.6643 52.0535 58.6856C54.5336 48.707 51.793 39.4369 38.1858 36.0549C35.1571 35.3021 31.7223 35.4002 28.2125 36.0055Z" fill="#F3F6FA"/>
<path d="M33.8079 48.7488L34.4786 48.9155C42.265 50.893 48.0211 53.7198 51.6632 57.3644C51.7172 57.4166 51.7671 57.4713 51.8211 57.5235L51.5733 57.7686L51.3322 58.0013C47.4182 53.9895 41.1321 51.3518 34.341 49.6252C34.1226 49.5674 33.901 49.5087 33.6777 49.4568C30.7964 48.7512 27.8407 48.2034 24.9416 47.7825C24.7175 47.748 24.4892 47.7159 24.261 47.6839C20.4315 47.1481 16.7251 46.8262 13.4836 46.634C13.2545 46.6194 13.0246 46.6081 12.7981 46.5976C7.31007 46.2948 3.26149 46.3709 2.36366 46.3945C2.25413 46.3955 2.19356 46.398 2.17945 46.3981L2.1682 46.0604L2.1657 46.0562L2.15527 45.7152C2.16939 45.7151 2.37269 45.7057 2.74775 45.7003C4.15092 45.6718 7.94978 45.6359 12.8834 45.8996C13.1058 45.9126 13.3357 45.9239 13.5647 45.9385C16.1955 46.0918 19.1193 46.3284 22.1585 46.696C22.9221 46.7871 23.6732 46.8856 24.4119 46.9916C24.641 47.0204 24.8692 47.0524 25.0933 47.087C28.2273 47.5416 31.1322 48.0955 33.8079 48.7488Z" fill="white"/>
<path d="M12.8834 45.8994C12.858 46.1293 12.8318 46.3625 12.7981 46.5974C12.7075 47.2355 12.5843 47.8685 12.4289 48.494C11.7699 51.1605 10.5211 53.6452 8.77441 55.7649C8.91572 55.9481 9.05706 56.1313 9.20087 56.3186C11.0649 54.0953 12.3961 51.4755 13.093 48.6591C13.2588 47.9913 13.3891 47.3153 13.4836 46.6338C13.5164 46.4022 13.5427 46.169 13.5648 45.9383C13.7578 44.0365 13.6609 42.1164 13.2773 40.2437C13.0592 40.341 12.8452 40.4359 12.6354 40.5283C12.9821 42.2967 13.0657 44.1066 12.8834 45.8994Z" fill="white"/>
<path d="M24.4117 46.9915C24.3681 47.2239 24.3178 47.4546 24.2608 47.6838C24.2468 47.7543 24.2287 47.8274 24.2113 47.8971C23.4935 50.7854 22.0879 53.4574 20.1143 55.6851C18.1407 57.9128 15.6577 59.6302 12.877 60.691C13.0398 60.8725 13.2027 61.054 13.3698 61.233C16.1959 60.1094 18.7137 58.3287 20.7145 56.0382C22.7154 53.7478 24.1417 51.0136 24.8754 48.0622C24.8985 47.9692 24.9216 47.8762 24.9414 47.7824C24.9959 47.5492 25.0462 47.3184 25.0931 47.0868C25.7927 43.4965 25.4433 39.7806 24.0869 36.3835C23.8645 36.4411 23.6422 36.4987 23.4191 36.5596C24.758 39.8662 25.103 43.4917 24.4117 46.9915Z" fill="white"/>
<path d="M33.8077 48.7487C33.7699 48.986 33.7254 49.2217 33.6776 49.4567C33.6257 49.7082 33.5704 49.9588 33.5085 50.2079C32.5394 54.0879 30.3396 57.5496 27.2384 60.0748C24.1372 62.6 20.3016 64.0527 16.3057 64.2155C16.5375 64.4318 16.766 64.6472 16.9995 64.8569C21.021 64.5539 24.8448 62.9914 27.9277 60.3913C31.0105 57.7912 33.1957 54.2857 34.1726 50.3729C34.2345 50.1239 34.2931 49.874 34.3409 49.625C34.3928 49.3876 34.4373 49.1519 34.4785 48.9154C35.2781 44.1294 34.229 39.2183 31.5437 35.1768C31.2806 35.1854 31.0184 35.2049 30.7529 35.2235C33.4912 39.1631 34.5869 44.0146 33.8077 48.7487Z" fill="white"/>
<path d="M44.2197 102.405L42.0781 100.224L44.7039 96.2094L49.1982 88.7283C49.0514 88.406 49.0058 88.0468 49.0676 87.698C49.1294 87.3493 49.2956 87.0275 49.5442 86.7753C49.7929 86.5231 50.1122 86.3523 50.46 86.2855C50.8078 86.2187 51.1677 86.2591 51.4921 86.4013C51.8164 86.5435 52.09 86.7809 52.2765 87.0819C52.4631 87.383 52.5538 87.7336 52.5368 88.0873C52.5197 88.4411 52.3957 88.7813 52.1811 89.063C51.9665 89.3448 51.6714 89.5547 51.3348 89.6651L47.6252 97.6518L44.2197 102.405Z" fill="#005B5B"/>
<path d="M41.847 107.383C41.5955 107.772 41.2372 108.081 40.815 108.272C40.3927 108.463 39.9243 108.529 39.4658 108.461C39.0293 108.409 38.6174 108.232 38.2807 107.949C37.9439 107.667 37.6969 107.292 37.5699 106.872C37.4765 106.573 37.4492 106.258 37.4902 105.948C37.5311 105.637 37.6392 105.34 37.807 105.076C39.2396 102.66 41.8819 99.471 41.9084 99.4392L41.9504 99.3884L46.407 100.354L41.847 107.383Z" fill="#7EBEFF"/>
<path d="M79.9731 20.3352L79.449 20.4965L75.0285 6.13865C74.35 3.93471 72.8237 2.09059 70.7855 1.01197C68.7473 -0.0666433 66.364 -0.291404 64.1601 0.387139H64.1601L33.7409 9.75253C32.6497 10.0885 31.6352 10.6361 30.7556 11.3642C29.876 12.0922 29.1483 12.9863 28.6143 13.9956C28.0802 15.0048 27.7501 16.1093 27.6429 17.2461C27.5357 18.3829 27.6534 19.5297 27.9894 20.6209V20.621L52.2405 99.3895C52.9191 101.593 54.4453 103.438 56.4836 104.516C58.5218 105.595 60.905 105.82 63.1089 105.141H63.109L93.5281 95.7756C95.732 95.0971 97.5761 93.5708 98.6548 91.5326C99.7334 89.4944 99.9582 87.1112 99.2796 84.9072V84.9072L82.5956 30.7167L83.1197 30.5554L79.9731 20.3352Z" fill="#101B25"/>
<path d="M65.161 2.44592L61.1903 3.66841C61.5107 4.05988 61.7299 4.52413 61.8287 5.02029C61.9274 5.51645 61.9026 6.02927 61.7565 6.51359C61.6104 6.99791 61.3474 7.43885 60.9907 7.79759C60.634 8.15632 60.1945 8.42182 59.7111 8.57072L42.2843 13.936C41.8008 14.0849 41.2881 14.1125 40.7914 14.0165C40.2947 13.9205 39.8293 13.7038 39.436 13.3856C39.0428 13.0673 38.7339 12.6572 38.5365 12.1915C38.339 11.7257 38.2592 11.2185 38.304 10.7146L34.5953 11.8564C32.9495 12.3631 31.5723 13.5029 30.7668 15.0251C29.9613 16.5472 29.7934 18.3269 30.3002 19.9728L54.5157 98.6258C55.0224 100.272 56.1622 101.649 57.6843 102.454C59.2065 103.26 60.9862 103.428 62.6321 102.921H62.6321L93.1978 93.5105C94.8437 93.0037 96.2208 91.8639 97.0263 90.3418C97.8318 88.8197 97.9997 87.0399 97.4929 85.3941L73.2774 6.74107C72.7706 5.09519 71.6308 3.71803 70.1087 2.91253C68.5866 2.10704 66.8068 1.93919 65.161 2.44592Z" fill="white"/>
<path d="M188.229 174.167L116.87 148.517C115.18 147.907 113.8 146.651 113.034 145.025C112.268 143.399 112.178 141.536 112.784 139.844L149.983 36.3587C150.593 34.6681 151.849 33.2884 153.475 32.5223C155.101 31.7563 156.964 31.6664 158.656 32.2725L230.014 57.9231C231.705 58.533 233.084 59.7886 233.85 61.4144C234.616 63.0403 234.706 64.9036 234.1 66.5956L196.901 170.081C196.291 171.772 195.036 173.151 193.41 173.917C191.784 174.683 189.921 174.773 188.229 174.167Z" fill="#101B25"/>
<path d="M189.817 170.142L118.207 144.401C117.686 144.213 117.261 143.826 117.025 143.325C116.789 142.824 116.761 142.25 116.948 141.728L154.393 37.5572C154.581 37.036 154.968 36.6107 155.469 36.3746C155.971 36.1385 156.545 36.1108 157.067 36.2976L228.676 62.0385C229.197 62.2265 229.622 62.6135 229.859 63.1147C230.095 63.6159 230.122 64.1903 229.936 64.7119L192.49 168.883C192.302 169.404 191.915 169.829 191.414 170.065C190.913 170.301 190.338 170.329 189.817 170.142Z" fill="white"/>
<path d="M193.361 47.5308C193.68 47.5308 193.938 47.2725 193.938 46.954C193.938 46.6354 193.68 46.3772 193.361 46.3772C193.042 46.3772 192.784 46.6354 192.784 46.954C192.784 47.2725 193.042 47.5308 193.361 47.5308Z" fill="white"/>
<path d="M74.8269 62.718C80.9087 56.6363 80.9087 46.7758 74.8269 40.6941C68.7452 34.6123 58.8847 34.6123 52.803 40.6941C46.7212 46.7758 46.7212 56.6363 52.803 62.718C58.8847 68.7998 68.7452 68.7998 74.8269 62.718Z" fill="#7EBEFF"/>
<path d="M65.4456 59.1381L57.7373 53.909L58.4104 52.9174L64.7919 57.2468L69.4042 42.8184L70.5451 43.183L65.4456 59.1381Z" fill="white"/>
<path d="M187.445 115.808C195.148 108.105 195.148 95.6156 187.445 87.9127C179.742 80.2098 167.253 80.2098 159.55 87.9127C151.847 95.6156 151.847 108.105 159.55 115.808C167.253 123.51 179.742 123.51 187.445 115.808Z" fill="#7EBEFF"/>
<path d="M168.74 110.241L165.907 98.7886L167.381 98.4246L169.726 107.906L186.287 98.2217L187.053 99.5311L168.74 110.241Z" fill="white"/>
<path d="M45.4614 160.83H48.1243L49.391 150.56L45.4609 150.56L45.4614 160.83Z" fill="#005B5B"/>
<path d="M44.7822 159.961L50.0262 159.961H50.0264C50.9127 159.961 51.7627 160.313 52.3894 160.94C53.0161 161.566 53.3682 162.416 53.3683 163.302V163.411L44.7824 163.411L44.7822 159.961Z" fill="#002C58"/>
<path d="M24.7275 159.678L27.3604 160.076L30.1484 150.11L26.6969 149.522L24.7275 159.678Z" fill="#005B5B"/>
<path d="M24.1866 158.717L29.3716 159.5L29.3718 159.5C30.2482 159.633 31.036 160.108 31.5619 160.821C32.0879 161.535 32.309 162.428 32.1766 163.304L32.1604 163.412L23.6709 162.128L24.1866 158.717Z" fill="#002C58"/>
<path d="M40.15 112.412L46.3421 111.063L49.8151 120.991L49.9237 159.326L44.8692 159.294L42.7563 128.267L29.2902 156.937L23.8604 156.285L35.6975 125.552C35.6975 125.552 35.0459 120.122 37.1092 117.407L36.6749 114.584L40.15 112.412Z" fill="#002C58"/>
<path d="M34.3375 105.112C34.1968 104.69 34.1818 104.235 34.2945 103.804C34.4071 103.373 34.6426 102.984 34.9722 102.684L36.281 101.494L39.9709 100.872L42.2781 100.453L47.7488 114.11L36.9799 115.336C36.1895 115.166 35.8738 114.733 36.3337 113.874L34.3375 105.112Z" fill="#7EBEFF"/>
<path d="M47.3765 102.851L47.0684 99.81L51.6279 98.3181L59.8127 95.2892C59.8996 94.9458 60.0886 94.6369 60.3549 94.4034C60.6211 94.1699 60.952 94.0226 61.3037 93.9812C61.6555 93.9398 62.0115 94.0062 62.3247 94.1715C62.6379 94.3368 62.8935 94.5933 63.0578 94.9071C63.222 95.2209 63.2871 95.5771 63.2445 95.9287C63.2019 96.2803 63.0535 96.6107 62.8191 96.8761C62.5846 97.1415 62.2751 97.3295 61.9314 97.4152C61.5878 97.5009 61.2262 97.4803 60.8946 97.356L53.0061 101.27L47.3765 102.851Z" fill="#005B5B"/>
<path d="M42.4126 105.253C41.9729 105.399 41.5003 105.416 41.0512 105.302C40.6022 105.187 40.1956 104.945 39.8803 104.605C39.572 104.292 39.3618 103.896 39.2755 103.465C39.1891 103.034 39.2304 102.588 39.3942 102.18C39.508 101.888 39.6839 101.625 39.9098 101.409C40.1357 101.192 40.4061 101.028 40.7021 100.926C43.3301 99.937 47.3865 99.0997 47.427 99.0913L47.4916 99.0781L50.3661 102.618L42.4126 105.253Z" fill="#7EBEFF"/>
<path d="M38.3512 99.5648C40.5882 99.5648 42.4017 97.7513 42.4017 95.5143C42.4017 93.2773 40.5882 91.4639 38.3512 91.4639C36.1142 91.4639 34.3008 93.2773 34.3008 95.5143C34.3008 97.7513 36.1142 99.5648 38.3512 99.5648Z" fill="#005B5B"/>
<path d="M35.0725 101.285C34.4443 101.285 33.8168 101.246 33.1933 101.17L33.1079 101.16L32.4554 97.6178C32.1787 96.1163 32.4872 94.5659 33.3176 93.2846C34.1481 92.0034 35.4374 91.0887 36.921 90.7281C37.02 90.703 37.124 90.7057 37.2216 90.7359C37.3191 90.7662 37.4064 90.8227 37.474 90.8993L37.6296 90.8451C38.2253 90.6373 38.8561 90.5489 39.486 90.585C40.1159 90.6211 40.7326 90.7808 41.3007 91.0552C41.8689 91.3295 42.3774 91.7131 42.7973 92.184C43.2172 92.6549 43.5402 93.2039 43.748 93.7997L43.7865 93.9103L42.7481 94.2724C42.4246 94.3853 42.1303 94.5688 41.8866 94.8097C41.6429 95.0505 41.4559 95.3427 41.3393 95.6649C41.2228 95.9871 41.1795 96.3313 41.2126 96.6723C41.2457 97.0134 41.3545 97.3428 41.5309 97.6365L42.5926 99.404L42.4796 99.4606C40.1881 100.642 37.6505 101.267 35.0725 101.285Z" fill="#002C58"/>
<path d="M89.5274 163.795H0.234365C0.172208 163.795 0.112596 163.771 0.0686437 163.727C0.0246918 163.683 0 163.623 0 163.561C0 163.499 0.0246918 163.439 0.0686437 163.395C0.112596 163.351 0.172208 163.327 0.234365 163.327H89.5274C89.5896 163.327 89.6492 163.351 89.6931 163.395C89.7371 163.439 89.7618 163.499 89.7618 163.561C89.7618 163.623 89.7371 163.683 89.6931 163.727C89.6492 163.771 89.5896 163.795 89.5274 163.795Z" fill="#E0E3E9"/>
<path d="M247.724 175.279H158.431C158.368 175.279 158.309 175.255 158.265 175.211C158.221 175.167 158.196 175.107 158.196 175.045C158.196 174.983 158.221 174.923 158.265 174.879C158.309 174.835 158.368 174.811 158.431 174.811H247.724C247.786 174.811 247.845 174.835 247.889 174.879C247.933 174.923 247.958 174.983 247.958 175.045C247.958 175.107 247.933 175.167 247.889 175.211C247.845 175.255 247.786 175.279 247.724 175.279Z" fill="#E0E3E9"/>
<path d="M199.227 134.375C199.425 134.21 199.584 134.002 199.693 133.768C199.803 133.534 199.859 133.279 199.859 133.021C199.859 132.763 199.802 132.507 199.693 132.274C199.584 132.04 199.425 131.832 199.227 131.667L197.913 108.553L194.166 109.4L196.643 131.974C196.387 132.325 196.268 132.758 196.31 133.191C196.351 133.623 196.55 134.026 196.868 134.322C197.187 134.618 197.603 134.787 198.038 134.797C198.472 134.807 198.895 134.657 199.227 134.375H199.227Z" fill="#005B5B"/>
<path d="M214.443 137.385C214.239 137.227 214.072 137.025 213.955 136.795C213.837 136.566 213.771 136.313 213.762 136.055C213.753 135.796 213.8 135.539 213.901 135.302C214.001 135.064 214.153 134.851 214.345 134.678L214.821 111.532L218.596 112.243L216.938 134.892C217.207 135.233 217.341 135.662 217.315 136.096C217.289 136.53 217.105 136.939 216.798 137.247C216.49 137.554 216.081 137.738 215.647 137.763C215.213 137.789 214.784 137.654 214.443 137.385Z" fill="#005B5B"/>
<path d="M216.44 171.784L219.38 171.784L220.218 164.926L216.439 164.926L216.44 171.784Z" fill="#005B5B"/>
<path d="M215.69 170.825L221.48 170.824H221.481C222.459 170.825 223.398 171.213 224.089 171.905C224.781 172.597 225.17 173.536 225.17 174.514V174.634L215.691 174.634L215.69 170.825Z" fill="#002C58"/>
<path d="M198.094 171.785L201.034 171.784L201.873 160.445H198.094L198.094 171.785Z" fill="#005B5B"/>
<path d="M197.345 170.825L203.135 170.824H203.135C204.113 170.825 205.052 171.213 205.744 171.905C206.436 172.597 206.824 173.536 206.825 174.514V174.634L197.345 174.634L197.345 170.825Z" fill="#002C58"/>
<path d="M209.938 98.5815C212.594 98.5815 214.748 96.4281 214.748 93.7717C214.748 91.1153 212.594 88.9619 209.938 88.9619C207.281 88.9619 205.128 91.1153 205.128 93.7717C205.128 96.4281 207.281 98.5815 209.938 98.5815Z" fill="#005B5B"/>
<path d="M216.05 104.87C216.05 104.87 218.188 105.048 218.366 106.117C218.544 107.186 218.366 110.393 218.366 110.393C218.366 110.393 219.791 114.668 218.366 115.737C216.941 116.806 213.2 116.984 213.2 116.984L216.05 104.87Z" fill="#CED2DB"/>
<path d="M197.88 129.098L195.921 132.304C195.921 132.304 196.633 146.377 196.812 146.734C196.953 146.943 197.016 147.195 196.99 147.446V149.406L197.524 166.507C197.524 166.507 196.099 167.22 197.88 167.754C199.662 168.289 201.978 168.467 202.334 166.685C202.69 164.904 202.707 150.063 202.69 149.584L202.868 148.871L205.719 138.361L212.31 152.969L216.229 169.358C216.229 169.358 222.16 170.042 221.092 167.727C220.023 165.411 217.476 148.159 217.476 148.159C217.476 148.159 216.942 146.377 216.942 146.021C216.942 145.665 216.763 145.487 216.763 145.13C216.763 144.774 216.585 143.705 216.585 143.705L215.338 132.482L197.88 129.098Z" fill="#002C58"/>
<path d="M199.662 101.842C199.662 101.842 197.524 101.664 196.99 103.445C196.456 105.227 192.002 111.996 192.893 112.709C193.783 113.421 200.553 115.915 200.731 115.737C200.909 115.559 199.662 101.842 199.662 101.842Z" fill="#CED2DB"/>
<path d="M215.538 90.7043C215.337 89.9529 215.052 89.2019 214.473 88.6828C213.885 88.1607 213.132 87.864 212.346 87.8454C211.45 87.3259 210.444 87.0246 209.409 86.9659C208.375 86.9073 207.341 87.0929 206.392 87.5077C206.289 87.3003 206.123 87.1309 205.918 87.0242C205.86 87.5189 205.803 88.0136 205.746 88.5082C205.525 88.342 205.304 88.1757 205.083 88.0094C205.072 88.3022 205.061 88.5949 205.05 88.8877C204.848 88.7136 204.645 88.5395 204.443 88.3654C204.4 89.4021 205.263 90.2998 206.238 90.6532C207.214 91.0066 208.284 90.9414 209.32 90.8924C209.832 90.8682 210.415 90.877 210.76 91.2554C211.122 91.6519 211.054 92.2597 211.063 92.7964C211.075 93.5513 211.85 93.1816 212.239 93.8288C212.406 94.0432 212.511 94.2999 212.541 94.5703C212.504 94.8155 212.415 95.0501 212.28 95.258C211.994 95.849 211.425 97.6876 211.696 98.2854C212.199 98.0041 212.702 97.7227 213.204 97.4414C213.204 97.4414 216.515 94.3416 215.538 90.7043Z" fill="#002C58"/>
<path d="M214.626 115.203C214.626 115.203 218.189 106.117 218.011 105.405C217.832 104.692 213.387 101.769 213.387 101.769C213.218 101.747 213.058 101.727 212.896 101.707C212.92 101.644 212.936 101.578 212.944 101.512L213.021 100.814C213.045 100.598 212.981 100.381 212.845 100.211C212.709 100.041 212.51 99.9323 212.294 99.9085L206.646 99.2893C206.429 99.2656 206.212 99.3288 206.042 99.4651C205.873 99.6014 205.764 99.7996 205.74 100.016L205.674 100.619C205.376 100.545 205.363 100.516 205.363 100.516C205.363 100.516 200.375 101.308 199.128 101.664C197.881 102.02 198.949 115.559 198.949 115.559C198.949 115.559 198.059 128.029 197.524 128.385C196.99 128.741 197.524 128.563 196.99 129.988C196.919 130.176 197.904 129.127 198.326 129.365C201.106 130.932 212.377 134.597 215.16 134.442C216.05 125.154 214.27 122.15 214.27 122.15L214.626 115.203Z" fill="#CED2DB"/>
</g>
<defs>
<clipPath id="clip0_7999_69625">
<rect width="247.958" height="175.279" fill="white"/>
</clipPath>
</defs>
</svg>
