<svg width="248" height="232" viewBox="0 0 248 232" fill="none" xmlns="http://www.w3.org/2000/svg">
<g clip-path="url(#clip0_7615_25181)">
<path d="M116.92 1.93133L109.333 6.07122L15.8534 57.0756L8.26597 61.2155C4.58428 63.2297 1.8519 66.622 0.668274 70.6483C-0.515352 74.6745 -0.0535596 79.0059 1.95234 82.6921L71.5642 210.275C73.5784 213.956 76.9708 216.689 80.997 217.873C85.0233 219.056 89.3546 218.594 93.0408 216.588L93.0604 216.578L201.676 157.315L201.695 157.304C205.377 155.29 208.109 151.898 209.293 147.872C210.476 143.845 210.015 139.514 208.009 135.828L138.397 8.24501C136.383 4.56332 132.99 1.83093 128.964 0.647289C124.938 -0.536347 120.606 -0.0745646 116.92 1.93133Z" fill="#F3F6FA"/>
<path d="M119.103 5.9316L110.116 10.835L19.435 60.3125L10.4483 65.2158C7.82645 66.6502 5.88065 69.0659 5.03775 71.9331C4.19486 74.8003 4.52371 77.8848 5.95217 80.5098L75.564 208.093C76.9984 210.714 79.4142 212.66 82.2814 213.503C85.1486 214.346 88.233 214.017 90.858 212.589L90.8776 212.578L199.493 153.315L199.512 153.304C202.134 151.87 204.08 149.454 204.923 146.587C205.766 143.72 205.437 140.635 204.008 138.01L134.397 10.4278C132.962 7.80597 130.547 5.86017 127.679 5.01726C124.812 4.17436 121.728 4.50319 119.103 5.9316Z" fill="white"/>
<path d="M120.601 45.5334L80.0918 67.6361C79.4781 67.9709 78.7566 68.0483 78.0859 67.8511C77.4151 67.6539 76.8502 67.1984 76.5154 66.5847C76.1805 65.971 76.1032 65.2494 76.3004 64.5787C76.4975 63.908 76.9531 63.3431 77.5668 63.0083L118.076 40.9055C118.69 40.5707 119.411 40.4933 120.082 40.6905C120.753 40.8877 121.318 41.3432 121.652 41.9569C121.987 42.5706 122.065 43.2922 121.868 43.9629C121.67 44.6336 121.215 45.1985 120.601 45.5334H120.601Z" fill="#F3F6FA"/>
<path d="M134.407 48.1349L84.3531 75.4455C83.7394 75.7804 83.0178 75.8577 82.3471 75.6606C81.6764 75.4634 81.1115 75.0078 80.7766 74.3942C80.4418 73.7805 80.3644 73.0589 80.5616 72.3882C80.7588 71.7175 81.2143 71.1526 81.828 70.8177L131.882 43.5071C132.186 43.3413 132.52 43.237 132.864 43.2001C133.208 43.1632 133.556 43.1944 133.888 43.2921C134.22 43.3897 134.53 43.5518 134.799 43.7691C135.069 43.9864 135.293 44.2546 135.459 44.5585C135.624 44.8623 135.729 45.1959 135.766 45.5401C135.803 45.8843 135.771 46.2323 135.674 46.5644C135.576 46.8965 135.414 47.2062 135.197 47.4756C134.979 47.7451 134.711 47.9691 134.407 48.1349H134.407Z" fill="#F3F6FA"/>
<path d="M63.4383 58.4354L26.091 78.8129C25.7971 78.9734 25.5788 79.2441 25.4844 79.5654C25.3899 79.8868 25.4269 80.2325 25.5873 80.5265L41.4907 109.674C41.6512 109.968 41.9219 110.186 42.2432 110.281C42.5645 110.375 42.9103 110.338 43.2043 110.178L80.5515 89.8002C80.8455 89.6397 81.0637 89.369 81.1582 89.0476C81.2527 88.7263 81.2156 88.3806 81.0553 88.0865L65.1519 58.9393C64.9914 58.6453 64.7207 58.427 64.3994 58.3325C64.078 58.2381 63.7323 58.2751 63.4383 58.4354Z" fill="#F3F6FA"/>
<path d="M140.701 82.5163L85.7554 112.496C85.4515 112.662 85.118 112.766 84.7738 112.803C84.4296 112.84 84.0815 112.808 83.7494 112.711C83.4173 112.613 83.1077 112.451 82.8382 112.234C82.5688 112.017 82.3448 111.748 82.179 111.444C82.0132 111.141 81.9088 110.807 81.8719 110.463C81.8351 110.119 81.8663 109.771 81.964 109.439C82.0616 109.106 82.2237 108.797 82.441 108.527C82.6582 108.258 82.9265 108.034 83.2303 107.868L138.176 77.8884C138.79 77.5536 139.511 77.4762 140.182 77.6734C140.853 77.8706 141.418 78.3261 141.753 78.9398C142.087 79.5535 142.165 80.2751 141.968 80.9458C141.77 81.6165 141.315 82.1814 140.701 82.5163H140.701Z" fill="#F3F6FA"/>
<path d="M154.507 85.1178L90.0161 120.305C89.4025 120.64 88.6809 120.717 88.0102 120.52C87.3395 120.323 86.7746 119.868 86.4397 119.254C86.1049 118.64 86.0275 117.919 86.2247 117.248C86.4219 116.577 86.8774 116.012 87.4911 115.677L151.982 80.49C152.595 80.1552 153.317 80.0778 153.988 80.275C154.658 80.4722 155.223 80.9277 155.558 81.5414C155.893 82.1551 155.97 82.8766 155.773 83.5473C155.576 84.2181 155.12 84.783 154.507 85.1178H154.507Z" fill="#F3F6FA"/>
<path d="M64.8295 137.048C71.0057 137.048 76.0125 132.041 76.0125 125.865C76.0125 119.689 71.0057 114.682 64.8295 114.682C58.6533 114.682 53.6465 119.689 53.6465 125.865C53.6465 132.041 58.6533 137.048 64.8295 137.048Z" fill="#F3F6FA"/>
<path d="M232.15 54.5015H108.375C104.178 54.5062 100.155 56.1754 97.1873 59.1429C94.2198 62.1103 92.5506 66.1337 92.5459 70.3304V215.668C92.5506 219.865 94.2198 223.888 97.1873 226.856C100.155 229.823 104.178 231.493 108.375 231.497H232.15C236.347 231.493 240.37 229.823 243.338 226.856C246.305 223.888 247.974 219.865 247.979 215.668V70.3304C247.974 66.1337 246.305 62.1103 243.338 59.1429C240.37 56.1754 236.347 54.5062 232.15 54.5015Z" fill="#CED2DB"/>
<path d="M232.15 59.0581H108.375C105.386 59.0615 102.521 60.2501 100.408 62.3633C98.2946 64.4765 97.1059 67.3417 97.1025 70.3302V215.668C97.1059 218.657 98.2946 221.522 100.408 223.635C102.521 225.748 105.386 226.937 108.375 226.94H232.15C235.139 226.937 238.004 225.748 240.117 223.635C242.23 221.522 243.419 218.657 243.422 215.668V70.3302C243.419 67.3417 242.23 64.4766 240.117 62.3634C238.004 60.2502 235.139 59.0615 232.15 59.0581Z" fill="white"/>
<path d="M214.498 94.5395H168.351C167.652 94.5395 166.981 94.2617 166.487 93.7674C165.993 93.2731 165.715 92.6026 165.715 91.9035C165.715 91.2044 165.993 90.534 166.487 90.0396C166.981 89.5453 167.652 89.2676 168.351 89.2676H214.498C214.844 89.2672 215.187 89.3351 215.507 89.4674C215.827 89.5997 216.118 89.7938 216.363 90.0386C216.608 90.2834 216.803 90.5741 216.936 90.8941C217.068 91.2141 217.137 91.5571 217.137 91.9035C217.137 92.2499 217.068 92.5929 216.936 92.9129C216.803 93.2329 216.608 93.5236 216.363 93.7684C216.118 94.0133 215.827 94.2073 215.507 94.3396C215.187 94.4719 214.844 94.5398 214.498 94.5395Z" fill="#7EBEFF"/>
<path d="M225.371 103.436H168.351C167.652 103.436 166.981 103.158 166.487 102.664C165.993 102.17 165.715 101.499 165.715 100.8C165.715 100.101 165.993 99.4304 166.487 98.9361C166.981 98.4418 167.652 98.1641 168.351 98.1641H225.371C226.07 98.1641 226.74 98.4418 227.235 98.9361C227.729 99.4304 228.007 100.101 228.007 100.8C228.007 101.499 227.729 102.17 227.235 102.664C226.74 103.158 226.07 103.436 225.371 103.436Z" fill="#7EBEFF"/>
<path d="M158.139 78.4863H115.594C115.259 78.4864 114.938 78.6195 114.701 78.8564C114.464 79.0932 114.331 79.4144 114.331 79.7493V112.953C114.331 113.288 114.464 113.609 114.701 113.846C114.938 114.083 115.259 114.216 115.594 114.216H158.139C158.474 114.216 158.795 114.083 159.032 113.846C159.269 113.609 159.402 113.288 159.402 112.953V79.7493C159.402 79.4144 159.269 79.0932 159.032 78.8564C158.795 78.6195 158.474 78.4864 158.139 78.4863Z" fill="#CED2DB"/>
<path d="M127.264 98.876C127.282 101.679 126.249 104.387 124.369 106.466C122.508 108.508 119.739 109.862 116.944 109.301C114.37 108.785 112.279 106.536 112.54 103.815C112.583 103.226 112.755 102.653 113.042 102.137C113.329 101.62 113.726 101.173 114.204 100.825C114.682 100.478 115.23 100.239 115.81 100.125C116.39 100.011 116.988 100.025 117.562 100.166C120.006 100.8 120.98 104.324 118.943 105.977C118.454 106.374 117.752 105.68 118.245 105.28C119.592 104.186 119.176 101.795 117.551 101.195C115.658 100.497 113.653 101.999 113.517 103.933C113.356 106.227 115.113 107.955 117.268 108.361C119.599 108.801 121.911 107.608 123.49 105.961C125.301 104.049 126.3 101.509 126.278 98.876C126.282 98.7481 126.336 98.6269 126.428 98.538C126.52 98.4491 126.643 98.3994 126.771 98.3994C126.899 98.3994 127.022 98.4491 127.114 98.538C127.206 98.6269 127.26 98.7481 127.264 98.876Z" fill="#002C58"/>
<path d="M136.899 105.149C146.621 105.149 154.503 97.2674 154.503 87.5455C154.503 77.8235 146.621 69.9424 136.899 69.9424C127.178 69.9424 119.296 77.8235 119.296 87.5455C119.296 97.2674 127.178 105.149 136.899 105.149Z" fill="#7EBEFF"/>
<path d="M135.999 95.0568L135.98 94.399C137.204 94.3649 138.283 94.2882 139.094 93.6959C139.324 93.5184 139.513 93.2935 139.648 93.0365C139.783 92.7795 139.861 92.4964 139.877 92.2065C139.891 92.0293 139.865 91.8512 139.799 91.6861C139.733 91.521 139.63 91.3733 139.498 91.2544C138.96 90.7999 138.094 90.947 137.463 91.2364L136.918 91.486L137.962 83.8584L138.614 83.9477L137.726 90.436C138.584 90.1839 139.378 90.2924 139.923 90.7521C140.132 90.9345 140.296 91.1628 140.402 91.4191C140.508 91.6754 140.553 91.9528 140.534 92.2296C140.515 92.6191 140.411 92.9998 140.229 93.3449C140.047 93.6899 139.792 93.9911 139.482 94.2272C138.44 94.9884 137.087 95.0263 135.999 95.0568Z" fill="#002C58"/>
<path d="M145.38 84.5068H141.837V85.1648H145.38V84.5068Z" fill="#002C58"/>
<path d="M134.197 84.5068H130.654V85.1648H134.197V84.5068Z" fill="#002C58"/>
<path d="M127.148 114.216C128.468 113.379 129.894 112.723 131.388 112.266C131.246 111.759 131.248 111.222 131.395 110.717C131.593 110.078 131.993 109.52 132.534 109.127C133.075 108.734 133.729 108.527 134.398 108.536H138.687C139.357 108.527 140.011 108.735 140.554 109.129C141.096 109.522 141.497 110.08 141.696 110.72C141.843 111.224 141.845 111.76 141.703 112.266C143.197 112.724 144.623 113.38 145.942 114.216H127.148Z" fill="#002C58"/>
<path d="M157.063 81.0128C156.743 80.6244 156.348 80.3036 155.902 80.0688C155.511 79.8647 155.077 79.7575 154.636 79.7563C154.03 79.7638 153.442 79.9617 152.955 80.3221C151.616 81.2693 150.689 83.3119 150.689 85.6768C150.689 88.6435 152.149 91.1038 154.047 91.5314C154.24 91.5747 154.438 91.5968 154.636 91.5972C156.81 91.5972 158.583 88.9429 158.583 85.6768C158.583 83.7822 157.987 82.0949 157.063 81.0128Z" fill="#101B25"/>
<path d="M120.909 80.1806H120.906C120.466 79.9076 119.96 79.7608 119.442 79.7563C119.001 79.7575 118.567 79.8647 118.176 80.0688C117.73 80.3035 117.335 80.6244 117.015 81.0128L117.011 81.0161C116.09 82.0982 115.495 83.7855 115.495 85.6768C115.495 88.2291 116.574 90.4065 118.087 91.2387C118.501 91.4707 118.967 91.5941 119.442 91.5972C119.548 91.5972 119.653 91.5906 119.758 91.5774H119.761C121.787 91.334 123.389 88.7817 123.389 85.6768C123.389 83.1902 122.36 81.0555 120.909 80.1806Z" fill="#101B25"/>
<path d="M118.334 90.6727C118.412 90.6727 118.489 90.654 118.559 90.6182C118.629 90.5824 118.689 90.5306 118.734 90.4669C118.78 90.4033 118.81 90.3297 118.822 90.2523C118.833 90.1748 118.826 90.0957 118.801 90.0215C117.858 87.2175 117.575 84.2338 117.972 81.3023C118.37 78.3708 119.438 75.5705 121.094 73.119C122.75 70.6675 124.949 68.6309 127.52 67.1673C130.091 65.7038 132.965 64.8528 135.918 64.6805C138.871 64.5082 141.824 65.0192 144.548 66.1738C147.272 67.3284 149.693 69.0956 151.622 71.3379C153.552 73.5801 154.939 76.2372 155.675 79.1026C156.411 81.9679 156.476 84.9643 155.865 87.859C155.838 87.987 155.863 88.1206 155.935 88.2302C156.006 88.3398 156.118 88.4166 156.246 88.4436C156.374 88.4706 156.508 88.4456 156.618 88.3742C156.727 88.3027 156.804 88.1907 156.831 88.0626C157.473 85.0192 157.405 81.8688 156.631 78.856C155.858 75.8433 154.4 73.0495 152.371 70.6919C150.343 68.3342 147.797 66.4762 144.934 65.2621C142.07 64.0481 138.965 63.5108 135.86 63.6921C132.755 63.8733 129.733 64.7682 127.03 66.3071C124.327 67.8461 122.015 69.9876 120.275 72.5653C118.534 75.143 117.411 78.0874 116.993 81.1696C116.576 84.2519 116.874 87.3889 117.866 90.3369C117.899 90.4348 117.962 90.5198 118.046 90.58C118.13 90.6403 118.23 90.6727 118.334 90.6727Z" fill="#101B25"/>
<path d="M145.742 76.1405C146.439 77.0919 146.096 78.3742 145.361 79.1945C144.406 80.2619 142.882 80.3293 141.558 80.1312C140.074 79.9089 138.499 79.2132 136.995 79.682C135.714 80.0816 134.8 81.2437 133.469 81.5355C132.289 81.7944 130.877 81.4517 130.463 80.1935C130.264 79.5889 131.217 79.3298 131.415 79.9312C131.682 80.7452 132.838 80.729 133.5 80.5036C134.562 80.1422 135.38 79.2632 136.423 78.8434C137.653 78.3484 138.987 78.5719 140.239 78.8539C141.42 79.1196 142.778 79.5137 143.954 79.0172C144.824 78.6498 145.516 77.4927 144.89 76.6385C144.514 76.1257 145.37 75.6329 145.742 76.1405Z" fill="#002C58"/>
<path d="M214.429 136.632H151.836C151.49 136.632 151.147 136.564 150.827 136.431C150.508 136.299 150.217 136.104 149.972 135.86C149.727 135.615 149.533 135.324 149.401 135.005C149.268 134.685 149.2 134.342 149.2 133.996C149.2 133.65 149.268 133.307 149.401 132.987C149.533 132.667 149.727 132.377 149.972 132.132C150.217 131.887 150.508 131.693 150.827 131.561C151.147 131.428 151.49 131.36 151.836 131.36H214.429C215.127 131.361 215.797 131.639 216.291 132.133C216.784 132.627 217.062 133.297 217.062 133.996C217.062 134.694 216.784 135.364 216.291 135.859C215.797 136.353 215.127 136.631 214.429 136.632Z" fill="#CED2DB"/>
<path d="M225.302 145.528H151.836C151.49 145.529 151.147 145.461 150.827 145.328C150.506 145.196 150.215 145.002 149.97 144.757C149.725 144.512 149.531 144.222 149.398 143.902C149.266 143.582 149.197 143.239 149.197 142.892C149.197 142.546 149.266 142.203 149.398 141.883C149.531 141.563 149.725 141.272 149.97 141.027C150.215 140.783 150.506 140.588 150.827 140.456C151.147 140.324 151.49 140.256 151.836 140.256H225.302C225.648 140.256 225.991 140.324 226.311 140.456C226.632 140.588 226.923 140.783 227.168 141.027C227.413 141.272 227.607 141.563 227.74 141.883C227.872 142.203 227.941 142.546 227.941 142.892C227.941 143.239 227.872 143.582 227.74 143.902C227.607 144.222 227.413 144.512 227.168 144.757C226.923 145.002 226.632 145.196 226.311 145.328C225.991 145.461 225.648 145.529 225.302 145.528Z" fill="#CED2DB"/>
<path d="M214.429 168.606H151.836C151.137 168.606 150.467 168.329 149.972 167.834C149.478 167.34 149.2 166.67 149.2 165.97C149.2 165.271 149.478 164.601 149.972 164.107C150.467 163.612 151.137 163.334 151.836 163.334H214.429C215.128 163.334 215.798 163.612 216.292 164.107C216.787 164.601 217.064 165.271 217.064 165.97C217.064 166.67 216.787 167.34 216.292 167.834C215.798 168.329 215.128 168.606 214.429 168.606Z" fill="#CED2DB"/>
<path d="M225.302 177.503H151.836C151.137 177.503 150.467 177.225 149.972 176.731C149.478 176.236 149.2 175.566 149.2 174.867C149.2 174.168 149.478 173.497 149.972 173.003C150.467 172.509 151.137 172.231 151.836 172.231H225.302C226.001 172.231 226.671 172.509 227.166 173.003C227.66 173.497 227.938 174.168 227.938 174.867C227.938 175.566 227.66 176.236 227.166 176.731C226.671 177.225 226.001 177.503 225.302 177.503Z" fill="#CED2DB"/>
<path d="M127.063 149.528C133.239 149.528 138.246 144.521 138.246 138.345C138.246 132.169 133.239 127.162 127.063 127.162C120.887 127.162 115.88 132.169 115.88 138.345C115.88 144.521 120.887 149.528 127.063 149.528Z" fill="#CED2DB"/>
<path d="M127.063 181.762C133.239 181.762 138.246 176.755 138.246 170.579C138.246 164.402 133.239 159.396 127.063 159.396C120.887 159.396 115.88 164.402 115.88 170.579C115.88 176.755 120.887 181.762 127.063 181.762Z" fill="#CED2DB"/>
<path d="M214.429 200.84H151.836C151.137 200.84 150.467 200.562 149.972 200.068C149.478 199.573 149.2 198.903 149.2 198.204C149.2 197.505 149.478 196.834 149.972 196.34C150.467 195.846 151.137 195.568 151.836 195.568H214.429C215.128 195.568 215.798 195.846 216.292 196.34C216.787 196.834 217.064 197.505 217.064 198.204C217.064 198.903 216.787 199.573 216.292 200.068C215.798 200.562 215.128 200.84 214.429 200.84Z" fill="#CED2DB"/>
<path d="M225.302 209.736H151.836C151.137 209.736 150.467 209.459 149.972 208.964C149.478 208.47 149.2 207.799 149.2 207.1C149.2 206.401 149.478 205.731 149.972 205.236C150.467 204.742 151.137 204.464 151.836 204.464H225.302C226.001 204.464 226.671 204.742 227.166 205.236C227.66 205.731 227.938 206.401 227.938 207.1C227.938 207.799 227.66 208.47 227.166 208.964C226.671 209.459 226.001 209.736 225.302 209.736Z" fill="#CED2DB"/>
<path d="M127.063 213.995C133.239 213.995 138.246 208.988 138.246 202.812C138.246 196.636 133.239 191.629 127.063 191.629C120.887 191.629 115.88 196.636 115.88 202.812C115.88 208.988 120.887 213.995 127.063 213.995Z" fill="#CED2DB"/>
</g>
<defs>
<clipPath id="clip0_7615_25181">
<rect width="247.958" height="231.497" fill="white" transform="translate(0.0209961)"/>
</clipPath>
</defs>
</svg>
